<svg width="50" height="54" viewBox="0 0 50 54" fill="none" xmlns="http://www.w3.org/2000/svg">
<path d="M18.1642 46.5135L23.7222 49.6895V43.3375L18.1642 46.5135Z" fill="black"/>
<path d="M17.9109 39.4226V45.9074L23.7222 42.5867V42.3325L18.2718 39.218L17.9109 39.4226Z" fill="black"/>
<path d="M18.9314 38.8441L23.7222 41.5817V36.1289L18.9314 38.8441Z" fill="black"/>
<path d="M30.4677 46.8399L25.3475 49.7657V44.0261L28.5601 45.7704L30.4677 46.8399Z" fill="black"/>
<path d="M44.6373 19.7375V16.2633L41.3338 18.1959C41.656 18.13 41.997 18.183 42.2893 18.3551L44.6373 19.7375Z" fill="black"/>
<path d="M39.7722 16.8332L38.8663 16.3189V11.8011L44.0029 14.8059L40.097 17.0908C40.004 16.9901 39.8949 16.9028 39.7722 16.8332Z" fill="black"/>
<path d="M13.2673 10.0956L17.3219 7.72365V12.4288L13.2673 10.0956Z" fill="black"/>
<path d="M17.9109 7.37911V12.7677L18.9638 13.3736L23.9445 10.5274L18.1698 7.22761L17.9109 7.37911Z" fill="black"/>
<path d="M18.7258 6.90237L24.307 9.992V3.63735L18.7258 6.90237Z" fill="black"/>
<path d="M30.4851 6.89806L24.896 9.992V3.62848L30.4851 6.89806Z" fill="black"/>
<path d="M25.2585 10.5274L31.0409 7.22322L31.2922 7.37023V13.1118L30.4966 13.5206L25.2585 10.5274Z" fill="black"/>
<path d="M32.9374 12.9527C32.6134 12.7687 32.2313 12.7286 31.8812 12.8342V7.71478L37.387 10.9357L33.3353 13.1786L32.9374 12.9527Z" fill="black"/>
<path d="M33.9643 13.5357L37.9441 11.2616L38.2774 11.4565V15.9845L33.9643 13.5357Z" fill="black"/>
<path d="M16.546 39.4551L11.4834 42.3481V42.6959L17.3219 46.0322V39.6202C17.0567 39.6445 16.7858 39.5895 16.546 39.4551Z" fill="black"/>
<path d="M37.6262 33.3526L37.4614 27.5035L33.6316 29.692L33.6273 31.2757L37.443 33.4561L37.6262 33.3526Z" fill="black"/>
<path d="M24.307 16.4484V11.0711L19.6185 13.7503L24.307 16.4484Z" fill="black"/>
<path d="M29.8048 13.8761L24.896 11.0711V16.3985L29.8048 13.8761Z" fill="black"/>
<path d="M11.4834 41.5972L15.8844 39.0823L11.4834 36.6025V41.5972Z" fill="black"/>
<path d="M37.4405 26.7646L37.4348 26.5627L34.1668 24.7079C33.9433 24.5811 33.7648 24.3958 33.6464 24.1774L33.6336 28.94L37.4405 26.7646Z" fill="black"/>
<path d="M36.7824 33.8294L33.6156 35.6188L33.6253 32.0254L36.7824 33.8294Z" fill="black"/>
<path fill-rule="evenodd" clip-rule="evenodd" d="M32.396 14.1735L39.2307 18.054L32.4407 22.1605L32.4271 22.1517L32.3845 37.9825L39.1237 34.1746L38.8879 25.811L34.9582 23.5807L34.9946 23.5591L34.9682 23.5442L41.369 19.7791L41.7295 19.5653L46.0216 22.0923L45.987 22.1118L46.6335 22.4919L46.7136 38.1967L46.6663 38.2232L46.6795 38.2303L32.2684 46.3348L32.269 46.2788L29.3374 44.6352L25.4528 42.526L25.5534 17.7289L25.5194 17.7071L32.396 14.1735ZM37.7615 18.0742L32.1752 21.4527C32.14 21.4654 32.1055 21.4808 32.0721 21.499C31.8336 21.6288 31.6848 21.8782 31.6841 22.1497L31.6415 37.9805C31.6408 38.2451 31.7808 38.4901 32.0091 38.6237C32.2375 38.7574 32.5197 38.7595 32.75 38.6294L39.4892 34.8214C39.729 34.6859 39.8741 34.4289 39.8664 34.1536L39.6306 25.7901C39.6233 25.5303 39.4807 25.2932 39.2547 25.1649L36.4167 23.5541L41.7308 20.4283L45.4349 22.609C45.485 22.6647 45.5439 22.7132 45.6104 22.7522L45.8927 22.9182L45.9685 37.7778L32.318 45.4545L29.7007 43.9871C29.6978 43.9855 29.6949 43.9839 29.6919 43.9823L26.1976 42.085L26.2947 18.144L32.3784 15.0179L37.7615 18.0742Z" fill="black"/>
<path d="M16.1656 23.7064L12.3385 25.8933L16.0974 28.0282L16.1656 23.7064Z" fill="black"/>
<path d="M11.6795 25.5191L11.4621 25.3956L11.477 20.4998L16.0226 23.0373L11.6795 25.5191Z" fill="black"/>
<path fill-rule="evenodd" clip-rule="evenodd" d="M17.0446 31C17.2728 31.1296 17.5524 31.1292 17.7802 30.999C18.008 30.8688 18.1503 30.628 18.1544 30.3657L18.2802 22.4044C18.2845 22.131 18.1382 21.8773 17.8994 21.744L10.5213 17.6251C10.2916 17.4968 10.0111 17.4997 9.78399 17.6325C9.55687 17.7654 9.41696 18.0084 9.41616 18.2716L9.39195 26.2189C9.39113 26.487 9.53485 26.7348 9.768 26.8672L17.0446 31ZM17.5373 22.3927L17.4115 30.3539L10.1349 26.2211L10.1591 18.2738L17.5373 22.3927Z" fill="black"/>
<path fill-rule="evenodd" clip-rule="evenodd" d="M24.1778 34.3891L17.2123 38.3368L10.1586 34.3624V42.9991L3.05175 38.825L3.05175 14.2269L10.3703 10.0128L24.1778 17.9582V34.3891ZM9.41558 34.3624V41.701L3.79474 38.3997L3.79474 14.6565L10.3704 10.8701L23.4348 18.3879V33.9561L17.2112 37.4834L10.5233 33.7151C10.2933 33.5855 10.0117 33.5877 9.78371 33.7209C9.55573 33.8541 9.41558 34.0983 9.41558 34.3624Z" fill="black"/>
<path fill-rule="evenodd" clip-rule="evenodd" d="M24.5608 0.563328C24.984 0.555513 25.409 0.662075 25.7877 0.883414L46.3971 12.9309C47.1157 13.351 47.5574 14.1205 47.5574 14.9526V19.8069C48.5117 20.443 49.093 21.514 49.0989 22.6688L49.176 37.7704C49.1808 38.7229 48.7939 39.62 48.13 40.2668C47.9091 40.4878 47.6564 40.6807 47.3771 40.8377L33.5091 48.6309C33.4055 48.6892 33.2994 48.7417 33.1915 48.7886L25.7876 53.1166C25.409 53.3379 24.984 53.4445 24.5609 53.4367C24.2297 53.4428 23.8974 53.3789 23.5871 53.2447C23.2305 53.211 22.8816 53.0888 22.5747 52.8804C22.3569 52.7325 22.1683 52.5511 22.0144 52.3452L10.8944 45.8449C10.2073 45.895 9.50889 45.7395 8.89454 45.3789L2.0556 41.3651C1.00007 40.7456 0.351792 39.6139 0.351792 38.3906L0.351791 14.7373C0.351791 13.5035 1.01127 12.3636 2.0813 11.7479L9.12402 7.69559C10.0318 7.17324 11.1181 7.09558 12.079 7.46265L23.334 0.883414C23.7126 0.662077 24.1377 0.555513 24.5608 0.563328ZM24.7479 1.71333C24.7054 1.68848 24.6555 1.68185 24.6091 1.69344C24.5627 1.68185 24.5128 1.68848 24.4703 1.71333L11.6916 9.18885L11.0248 8.80515C10.6117 8.56745 10.1034 8.56753 9.69037 8.80533L2.37179 13.0195C1.95726 13.2582 1.70177 13.7001 1.70177 14.1785L1.70177 38.7765C1.70177 39.2507 1.95292 39.6895 2.36184 39.9297L9.46866 44.1038C9.86881 44.3388 10.3611 44.3491 10.7696 44.1337L23.7282 51.7144V51.8303C23.7282 51.8921 23.7589 51.9495 23.8096 51.9839L23.8662 51.9549C23.876 51.9657 23.8872 51.9755 23.8996 51.9839L24.0537 51.9048L24.4703 52.1485C24.5128 52.1734 24.5627 52.18 24.6091 52.1684C24.6555 52.18 24.7054 52.1734 24.7479 52.1485L32.5859 47.5634C32.661 47.5373 32.7343 47.5044 32.805 47.4646L47.2162 39.3601C47.3297 39.2963 47.4316 39.2175 47.52 39.127C47.7855 38.8739 47.9404 38.5194 47.9385 38.143L47.8584 22.4382C47.8559 21.9622 47.603 21.5227 47.1927 21.2814L46.8244 21.0648C46.7514 20.9958 46.6701 20.9343 46.5814 20.8821L46.2565 20.6908V14.4023C46.2565 14.3363 46.2215 14.2753 46.1646 14.242L24.7479 1.71333Z" fill="black"/>
</svg>
